<?xml version="1.0" encoding="UTF-8"?>
<!DOCTYPE svg PUBLIC "-//W3C//DTD SVG 1.1//EN" "http://www.w3.org/Graphics/SVG/1.1/DTD/svg11.dtd">
<svg xmlns="http://www.w3.org/2000/svg" version="1.1" width="604px" height="678px" style="shape-rendering:geometricPrecision; text-rendering:geometricPrecision; image-rendering:optimizeQuality; fill-rule:evenodd; clip-rule:evenodd" xmlns:xlink="http://www.w3.org/1999/xlink">
<g><path style="opacity:0.997" fill="#f48219" d="M 320.5,163.5 C 294.616,168.092 272.616,161.092 254.5,142.5C 255.263,141.732 256.263,141.232 257.5,141C 233.972,113.922 230.139,84.0885 246,51.5C 263.9,24.1367 289.066,12.97 321.5,18C 354.781,28.9569 372.781,51.9569 375.5,87C 374.598,117.182 361.264,139.849 335.5,155C 330.538,156.932 325.538,158.765 320.5,160.5C 319.438,161.425 319.438,162.425 320.5,163.5 Z"/></g>
<g><path style="opacity:0.004" fill="#000000" d="M 37.5,21.5 C 38.8333,22.1667 38.8333,22.1667 37.5,21.5 Z"/></g>
<g><path style="opacity:0.004" fill="#000000" d="M 37.5,37.5 C 38.8333,38.1667 38.8333,38.1667 37.5,37.5 Z"/></g>
<g><path style="opacity:0.992" fill="#f77b0c" d="M 320.5,163.5 C 319.438,162.425 319.438,161.425 320.5,160.5C 325.538,158.765 330.538,156.932 335.5,155C 361.264,139.849 374.598,117.182 375.5,87C 372.781,51.9569 354.781,28.9569 321.5,18C 289.066,12.97 263.9,24.1367 246,51.5C 230.139,84.0885 233.972,113.922 257.5,141C 256.263,141.232 255.263,141.732 254.5,142.5C 236.991,122.819 230.491,99.819 235,73.5C 242.735,40.9419 261.902,21.2753 292.5,14.5C 326.214,9.94908 351.381,21.9491 368,50.5C 384.008,85.3499 379.841,116.35 355.5,143.5C 345.784,153.526 334.117,160.193 320.5,163.5 Z"/></g>
<g><path style="opacity:0.004" fill="#000000" d="M 37.5,53.5 C 38.8333,54.1667 38.8333,54.1667 37.5,53.5 Z"/></g>
<g><path style="opacity:0.004" fill="#000000" d="M 37.5,61.5 C 38.525,61.8966 38.6917,62.5632 38,63.5C 37.5357,62.9056 37.369,62.2389 37.5,61.5 Z"/></g>
<g><path style="opacity:0.004" fill="#000000" d="M 37.5,77.5 C 38.8333,78.1667 38.8333,78.1667 37.5,77.5 Z"/></g>
<g><path style="opacity:0.004" fill="#ff33ff" d="M 378.5,91.5 C 379.613,92.9464 379.78,94.6131 379,96.5C 378.506,94.8659 378.34,93.1992 378.5,91.5 Z"/></g>
<g><path style="opacity:0.004" fill="#fe0000" d="M 541.5,186.5 C 541.369,185.761 541.536,185.094 542,184.5C 542.692,185.437 542.525,186.103 541.5,186.5 Z"/></g>
<g><path style="opacity:0.992" fill="#f97a0f" d="M 66.5,184.5 C 222.334,185.167 378.334,185.833 534.5,186.5C 377.127,187.339 219.793,187.839 62.5,188C 63.9423,187.623 64.9423,186.79 65.5,185.5C 65.5,184.833 65.8333,184.5 66.5,184.5 Z"/></g>
<g><path style="opacity:0.004" fill="#fe0000" d="M 32.5,227.5 C 33.8333,228.167 33.8333,228.167 32.5,227.5 Z"/></g>
<g><path style="opacity:0.995" fill="#096a40" d="M 443.5,263.5 C 444.492,263.328 445.158,263.662 445.5,264.5C 444.227,265.077 444.227,265.743 445.5,266.5C 458.852,271.346 469.019,280.013 476,292.5C 483.261,314.4 483.261,336.4 476,358.5C 466.87,385.592 452.037,409.092 431.5,429C 427.286,432.882 422.786,436.382 418,439.5C 417.472,440.816 417.972,441.483 419.5,441.5C 417.777,443.218 415.777,444.551 413.5,445.5C 413.631,444.624 413.298,443.957 412.5,443.5C 383.456,462.427 353.122,464.593 321.5,450C 319.5,449.333 317.5,449.333 315.5,450C 300.107,455.893 285.773,463.727 272.5,473.5C 264.501,481.164 260.001,490.497 259,501.5C 259.409,520.262 256.075,538.262 249,555.5C 242.475,567.191 233.975,577.191 223.5,585.5C 223.957,586.298 224.624,586.631 225.5,586.5C 213.052,595.568 199.719,603.401 185.5,610C 167.058,621.722 153.391,637.555 144.5,657.5C 143.675,658.386 142.675,658.719 141.5,658.5C 141.5,655.5 141.5,652.5 141.5,649.5C 142.5,649.5 143.5,649.5 144.5,649.5C 145.96,639.254 149.126,629.587 154,620.5C 158,615.167 162,609.833 166,604.5C 179.564,593.636 193.397,583.136 207.5,573C 219.273,561.623 226.44,547.789 229,531.5C 229.924,515.159 230.59,498.825 231,482.5C 232.348,474.474 235.348,467.14 240,460.5C 251.812,445.697 266.312,434.197 283.5,426C 286.07,423.933 288.07,421.433 289.5,418.5C 289.043,417.702 288.376,417.369 287.5,417.5C 288.265,414.904 288.599,412.237 288.5,409.5C 289.777,408.306 290.444,406.64 290.5,404.5C 287.367,372.293 295.867,343.626 316,318.5C 342.382,286.61 376.049,268.276 417,263.5C 424.846,264.056 432.679,264.723 440.5,265.5C 442.03,265.36 443.03,264.693 443.5,263.5 Z M 405.5,326.5 C 420.381,326.219 429.048,333.385 431.5,348C 430.555,358.919 424.889,365.919 414.5,369C 394.404,369.903 385.904,360.403 389,340.5C 392.082,334.416 396.749,330.083 403,327.5C 404.007,329.742 404.841,329.408 405.5,326.5 Z"/></g>
<g><path style="opacity:0.004" fill="#fe0000" d="M 18.5,268.5 C 19.8333,269.167 19.8333,269.167 18.5,268.5 Z"/></g>
<g><path style="opacity:0.004" fill="#fe0000" d="M 586.5,276.5 C 587.833,277.167 587.833,277.167 586.5,276.5 Z"/></g>
<g><path style="opacity:0.004" fill="#fe0000" d="M 8.5,303.5 C 8.63101,304.239 8.46434,304.906 8,305.5C 7.30831,304.563 7.47498,303.897 8.5,303.5 Z"/></g>
<g><path style="opacity:0.922" fill="#195b30" d="M 445.5,264.5 C 452.959,266.452 459.626,269.952 465.5,275C 470.125,279.784 474.125,284.951 477.5,290.5C 483.039,305.339 484.872,320.673 483,336.5C 481.478,345.253 479.644,353.92 477.5,362.5C 474.264,369.316 471.264,376.316 468.5,383.5C 456.556,406.452 440.223,425.785 419.5,441.5C 417.972,441.483 417.472,440.816 418,439.5C 422.786,436.382 427.286,432.882 431.5,429C 452.037,409.092 466.87,385.592 476,358.5C 483.261,336.4 483.261,314.4 476,292.5C 469.019,280.013 458.852,271.346 445.5,266.5C 444.227,265.743 444.227,265.077 445.5,264.5 Z"/></g>
<g><path style="opacity:0.996" fill="#f48319" d="M 66.5,184.5 C 224.457,184.505 382.29,184.505 540,184.5C 540.278,185.416 540.778,186.082 541.5,186.5C 546.512,190.029 550.345,194.695 553,200.5C 566.049,231.859 579.049,263.193 592,294.5C 593.819,300.822 592.319,305.989 587.5,310C 588.654,310.914 588.487,311.747 587,312.5C 586.612,311.572 585.945,310.905 585,310.5C 577.909,310.922 570.909,311.922 564,313.5C 562.674,313.245 561.674,312.578 561,311.5C 560.692,312.308 560.192,312.975 559.5,313.5C 556.582,310.887 553.749,310.887 551,313.5C 544.405,312.187 537.572,311.52 530.5,311.5C 523.204,311.553 516.038,312.22 509,313.5C 508.055,313.095 507.388,312.428 507,311.5C 506.333,314.167 505.667,314.167 505,311.5C 504.667,312.167 504.333,312.833 504,313.5C 501.092,290.166 491.592,271.333 475.5,257C 465.044,248.714 454.044,243.714 442.5,242C 387.05,238.238 340.217,257.738 302,300.5C 286.328,318.507 275.662,339.841 270,364.5C 269.114,369.47 268.448,374.47 268,379.5C 267.855,389.204 267.689,398.87 267.5,408.5C 245.954,419.882 228.787,435.882 216,456.5C 211.635,464.951 208.969,473.951 208,483.5C 207.667,497.167 207.333,510.833 207,524.5C 205.817,533.721 202.484,542.054 197,549.5C 191.174,555.834 185.007,561.834 178.5,567.5C 176.566,568.11 174.899,569.11 173.5,570.5C 167.76,574.365 162.427,578.698 157.5,583.5C 139.657,599.991 128.991,620.991 125.5,646.5C 116.803,638.904 108.637,631.571 101,624.5C 87.4296,612.629 73.7629,599.963 60,586.5C 55.3891,578.439 55.7224,571.106 61,564.5C 67.4455,553.272 73.6122,541.939 79.5,530.5C 83.0031,525.498 86.0031,520.165 88.5,514.5C 94.6575,504.86 100.324,494.86 105.5,484.5C 108.263,480.66 110.096,476.66 111,472.5C 111.333,472.833 111.667,473.167 112,473.5C 113.592,469.979 115.425,466.646 117.5,463.5C 118.441,466.125 119.607,466.125 121,463.5C 141.566,425.266 162.566,387.266 184,349.5C 187.717,340.493 187.217,331.826 182.5,323.5C 181.818,324.243 181.151,324.909 180.5,325.5C 177.667,322.364 174.667,319.198 171.5,316C 168.052,314.073 164.385,312.739 160.5,312C 153.5,311.833 146.5,311.667 139.5,311.5C 132.096,311.519 124.93,312.186 118,313.5C 113.082,312.195 107.915,311.529 102.5,311.5C 97.0849,311.529 91.9183,312.195 87,313.5C 83.9364,312.217 80.6031,311.55 77,311.5C 73.3969,311.55 70.0636,312.217 67,313.5C 50.7359,311.688 34.2359,310.855 17.5,311C 13.0611,310.049 10.0611,307.549 8.5,303.5C 9.0128,299.771 9.84613,296.104 11,292.5C 23.5663,261.283 35.8996,230.95 48,201.5C 50.2588,195.97 53.2588,190.97 57,186.5C 57.414,186.957 57.914,187.291 58.5,187.5C 60.7294,186.423 63.0628,185.756 65.5,185.5C 64.9423,186.79 63.9423,187.623 62.5,188C 219.793,187.839 377.127,187.339 534.5,186.5C 378.334,185.833 222.334,185.167 66.5,184.5 Z"/></g>
<g><path style="opacity:0.004" fill="#000000" d="M 477.5,289.5 C 478.833,290.167 478.833,290.167 477.5,289.5 Z"/></g>
<g><path style="opacity:0.004" fill="#000000" d="M 469.5,272.5 C 470.525,272.897 470.692,273.563 470,274.5C 469.536,273.906 469.369,273.239 469.5,272.5 Z"/></g>
<g><path style="opacity:0.004" fill="#fe0000" d="M 38.5,312.5 C 39.8333,313.167 39.8333,313.167 38.5,312.5 Z"/></g>
<g><path style="opacity:0.004" fill="#fe0000" d="M 43.5,312.5 C 44.8333,313.167 44.8333,313.167 43.5,312.5 Z"/></g>
<g><path style="opacity:0.004" fill="#fe0000" d="M 53.5,313.5 C 53.8966,312.475 54.5632,312.308 55.5,313C 54.9056,313.464 54.2389,313.631 53.5,313.5 Z"/></g>
<g><path style="opacity:0.004" fill="#fe0000" d="M 62.5,312.5 C 63.8333,313.167 63.8333,313.167 62.5,312.5 Z"/></g>
<g><path style="opacity:0.004" fill="#fe0000" d="M 102.5,312.5 C 103.833,313.167 103.833,313.167 102.5,312.5 Z"/></g>
<g><path style="opacity:0.004" fill="#fe0000" d="M 105.5,313.5 C 105.897,312.475 106.563,312.308 107.5,313C 106.906,313.464 106.239,313.631 105.5,313.5 Z"/></g>
<g><path style="opacity:0.004" fill="#fe0000" d="M 110.5,312.5 C 111.833,313.167 111.833,313.167 110.5,312.5 Z"/></g>
<g><path style="opacity:0.004" fill="#fe0000" d="M 142.5,312.5 C 143.833,313.167 143.833,313.167 142.5,312.5 Z"/></g>
<g><path style="opacity:0.988" fill="#16562d" d="M 443.5,263.5 C 443.03,264.693 442.03,265.36 440.5,265.5C 432.679,264.723 424.846,264.056 417,263.5C 376.049,268.276 342.382,286.61 316,318.5C 295.867,343.626 287.367,372.293 290.5,404.5C 290.444,406.64 289.777,408.306 288.5,409.5C 287.597,403.914 286.93,398.247 286.5,392.5C 287.726,387.613 287.726,382.946 286.5,378.5C 287.644,374.77 288.644,371.104 289.5,367.5C 289.315,366.416 288.982,365.416 288.5,364.5C 305.694,316.822 337.027,284.656 382.5,268C 402.481,260.456 422.814,258.956 443.5,263.5 Z"/></g>
<g><path style="opacity:0.004" fill="#000000" d="M 484.5,331.5 C 485.833,332.167 485.833,332.167 484.5,331.5 Z"/></g>
<g><path style="opacity:0.004" fill="#000000" d="M 482.5,343.5 C 483.833,344.167 483.833,344.167 482.5,343.5 Z"/></g>
<g><path style="opacity:0.004" fill="#fe0000" d="M 174.5,353.5 C 175.833,354.167 175.833,354.167 174.5,353.5 Z"/></g>
<g><path style="opacity:0.004" fill="#000000" d="M 287.5,363.5 C 286.833,362.167 286.833,362.167 287.5,363.5 Z"/></g>
<g><path style="opacity:0.004" fill="#000000" d="M 287.5,363.5 C 288.167,363.5 288.5,363.833 288.5,364.5C 288.167,364.167 287.833,363.833 287.5,363.5 Z"/></g>
<g><path style="opacity:0.004" fill="#132c0c" d="M 477.5,362.5 C 478.525,362.897 478.692,363.563 478,364.5C 477.536,363.906 477.369,363.239 477.5,362.5 Z"/></g>
<g><path style="opacity:0.006" fill="#000000" d="M 468.5,383.5 C 469.525,383.897 469.692,384.563 469,385.5C 468.536,384.906 468.369,384.239 468.5,383.5 Z"/></g>
<g><path style="opacity:0.004" fill="#000000" d="M 270.5,409.5 C 271.525,409.897 271.692,410.563 271,411.5C 270.536,410.906 270.369,410.239 270.5,409.5 Z"/></g>
<g><path style="opacity:0.004" fill="#000000" d="M 453.5,411.5 C 454.525,411.897 454.692,412.563 454,413.5C 453.536,412.906 453.369,412.239 453.5,411.5 Z"/></g>
<g><path style="opacity:0.004" fill="#000000" d="M 37.5,422.5 C 38.8333,423.167 38.8333,423.167 37.5,422.5 Z"/></g>
<g><path style="opacity:0.992" fill="#165329" d="M 287.5,417.5 C 288.376,417.369 289.043,417.702 289.5,418.5C 288.07,421.433 286.07,423.933 283.5,426C 266.312,434.197 251.812,445.697 240,460.5C 235.348,467.14 232.348,474.474 231,482.5C 230.59,498.825 229.924,515.159 229,531.5C 226.44,547.789 219.273,561.623 207.5,573C 193.397,583.136 179.564,593.636 166,604.5C 162,609.833 158,615.167 154,620.5C 149.126,629.587 145.96,639.254 144.5,649.5C 143.5,649.5 142.5,649.5 141.5,649.5C 145.973,623.252 159.64,602.585 182.5,587.5C 190.85,582.519 198.517,576.852 205.5,570.5C 218.72,557.382 226.053,541.382 227.5,522.5C 227.707,514.786 227.374,506.952 226.5,499C 226.116,482.514 230.616,468.347 240,456.5C 251.307,442.431 265.141,431.598 281.5,424C 283.734,421.937 285.734,419.771 287.5,417.5 Z"/></g>
<g><path style="opacity:0.004" fill="#000000" d="M 37.5,446.5 C 38.8333,447.167 38.8333,447.167 37.5,446.5 Z"/></g>
<g><path style="opacity:0.004" fill="#1d1b09" d="M 238.5,450.5 C 240.332,451.14 240.665,452.14 239.5,453.5C 238.614,452.675 238.281,451.675 238.5,450.5 Z"/></g>
<g><path style="opacity:0.982" fill="#f7790a" d="M 117.5,463.5 C 137.636,426.007 158.803,387.673 181,348.5C 184.402,340.733 184.235,333.066 180.5,325.5C 181.151,324.909 181.818,324.243 182.5,323.5C 187.217,331.826 187.717,340.493 184,349.5C 162.566,387.266 141.566,425.266 121,463.5C 119.607,466.125 118.441,466.125 117.5,463.5 Z"/></g>
<g><path style="opacity:0.004" fill="#000000" d="M 395.5,456.5 C 396.833,457.167 396.833,457.167 395.5,456.5 Z"/></g>
<g><path style="opacity:0.995" fill="#f48219" d="M 533.5,546.5 C 537.793,555.455 541.96,563.455 546,570.5C 548.092,577.459 546.425,583.459 541,588.5C 528.837,599.32 516.004,610.987 502.5,623.5C 502.875,620.093 501.875,619.593 499.5,622C 485.413,635.093 470.746,647.426 455.5,659C 451.833,659.667 448.167,659.667 444.5,659C 436.193,648.76 429.359,637.593 424,625.5C 396.59,580.358 369.923,534.691 344,488.5C 343,487.167 342,485.833 341,484.5C 340.722,485.416 340.222,486.082 339.5,486.5C 337.61,484.41 335.943,482.077 334.5,479.5C 334.808,478.692 335.308,478.025 336,477.5C 344.677,479.586 353.51,480.92 362.5,481.5C 371.888,480.878 381.221,479.878 390.5,478.5C 411.585,471.929 430.919,460.429 448.5,444C 453.69,437.812 459.19,431.979 465,426.5C 487.231,465.856 510.064,505.856 533.5,546.5 Z"/></g>
<g><path style="opacity:0.004" fill="#000000" d="M 37.5,470.5 C 38.8333,471.167 38.8333,471.167 37.5,470.5 Z"/></g>
<g><path style="opacity:0.004" fill="#fe0000" d="M 102.5,474.5 C 103.833,475.167 103.833,475.167 102.5,474.5 Z"/></g>
<g><path style="opacity:0.58" fill="#185d31" d="M 413.5,445.5 C 402.862,453.15 390.528,458.316 376.5,461C 375.333,461.5 374.5,462.333 374,463.5C 373.326,462.422 372.326,461.755 371,461.5C 364.869,462.394 358.702,462.727 352.5,462.5C 340.851,460.122 329.351,456.789 318,452.5C 303.212,457.479 289.045,464.646 275.5,474C 269.481,478.548 265.315,484.381 263,491.5C 261.336,504.129 260.002,516.795 259,529.5C 254.99,552.874 243.823,571.874 225.5,586.5C 224.624,586.631 223.957,586.298 223.5,585.5C 233.975,577.191 242.475,567.191 249,555.5C 256.075,538.262 259.409,520.262 259,501.5C 260.001,490.497 264.501,481.164 272.5,473.5C 285.773,463.727 300.107,455.893 315.5,450C 317.5,449.333 319.5,449.333 321.5,450C 353.122,464.593 383.456,462.427 412.5,443.5C 413.298,443.957 413.631,444.624 413.5,445.5 Z"/></g>
<g><path style="opacity:0.004" fill="#000000" d="M 352.5,462.5 C 351.833,463.167 351.833,463.167 352.5,462.5 Z"/></g>
<g><path style="opacity:0.004" fill="#fe0000" d="M 105.5,484.5 C 104.833,483.167 104.833,483.167 105.5,484.5 Z"/></g>
<g><path style="opacity:0.004" fill="#000000" d="M 37.5,486.5 C 38.8333,487.167 38.8333,487.167 37.5,486.5 Z"/></g>
<g><path style="opacity:0.008" fill="#ff66ff" d="M 88.5,514.5 C 88.1667,514.5 87.8333,514.5 87.5,514.5C 87.8333,511.833 88.1667,511.833 88.5,514.5 Z"/></g>
<g><path style="opacity:0.004" fill="#fe0000" d="M 87.5,514.5 C 86.8333,515.167 86.8333,515.167 87.5,514.5 Z"/></g>
<g><path style="opacity:0.004" fill="#fe0000" d="M 79.5,530.5 C 78.8333,529.167 78.8333,529.167 79.5,530.5 Z"/></g>
<g><path style="opacity:0.008" fill="#ffacfe" d="M 533.5,546.5 C 533.369,545.761 533.536,545.094 534,544.5C 534.692,545.437 534.525,546.103 533.5,546.5 Z"/></g>
<g><path style="opacity:0.004" fill="#000000" d="M 214.5,555.5 C 215.833,556.167 215.833,556.167 214.5,555.5 Z"/></g>
<g><path style="opacity:0.004" fill="#fe0000" d="M 37.5,558.5 C 38.8333,559.167 38.8333,559.167 37.5,558.5 Z"/></g>
<g><path style="opacity:0.004" fill="#000000" d="M 206.5,563.5 C 207.833,564.167 207.833,564.167 206.5,563.5 Z"/></g>
<g><path style="opacity:0.004" fill="#fe0000" d="M 178.5,567.5 C 179.525,567.897 179.692,568.563 179,569.5C 178.536,568.906 178.369,568.239 178.5,567.5 Z"/></g>
<g><path style="opacity:0.004" fill="#000000" d="M 205.5,570.5 C 204.833,569.167 204.833,569.167 205.5,570.5 Z"/></g>
<g><path style="opacity:0.004" fill="#000000" d="M 200.5,570.5 C 201.833,571.167 201.833,571.167 200.5,570.5 Z"/></g>
<g><path style="opacity:0.004" fill="#a3a21a" d="M 173.5,570.5 C 174.525,570.897 174.692,571.563 174,572.5C 173.536,571.906 173.369,571.239 173.5,570.5 Z"/></g>
<g><path style="opacity:0.004" fill="#000000" d="M 191.5,577.5 C 192.833,578.167 192.833,578.167 191.5,577.5 Z"/></g>
<g><path style="opacity:0.004" fill="#fe0000" d="M 55.5,580.5 C 56.525,580.897 56.6917,581.563 56,582.5C 55.5357,581.906 55.369,581.239 55.5,580.5 Z"/></g>
<g><path style="opacity:0.004" fill="#fe0000" d="M 37.5,582.5 C 38.8333,583.167 38.8333,583.167 37.5,582.5 Z"/></g>
<g><path style="opacity:0.004" fill="#a3a21a" d="M 157.5,583.5 C 158.525,583.897 158.692,584.563 158,585.5C 157.536,584.906 157.369,584.239 157.5,583.5 Z"/></g>
<g><path style="opacity:0.004" fill="#000000" d="M 174.5,585.5 C 175.525,585.897 175.692,586.563 175,587.5C 174.536,586.906 174.369,586.239 174.5,585.5 Z"/></g>
<g><path style="opacity:0.008" fill="#54530d" d="M 182.5,587.5 C 181.475,587.103 181.308,586.437 182,585.5C 182.464,586.094 182.631,586.761 182.5,587.5 Z"/></g>
<g><path style="opacity:0.004" fill="#000000" d="M 175.5,588.5 C 176.833,589.167 176.833,589.167 175.5,588.5 Z"/></g>
<g><path style="opacity:0.012" fill="#486300" d="M 150.5,610.5 C 151.525,610.897 151.692,611.563 151,612.5C 150.536,611.906 150.369,611.239 150.5,610.5 Z"/></g>
<g><path style="opacity:0.004" fill="#000000" d="M 150.5,614.5 C 151.833,615.167 151.833,615.167 150.5,614.5 Z"/></g>
<g><path style="opacity:0.953" fill="#f57a0a" d="M 502.5,623.5 C 498.784,626.052 495.951,629.385 494,633.5C 493.295,631.014 492.462,631.014 491.5,633.5C 480.998,642.499 470.332,651.332 459.5,660C 450.755,664.413 443.255,662.913 437,655.5C 404.097,599.676 371.597,543.343 339.5,486.5C 340.222,486.082 340.722,485.416 341,484.5C 342,485.833 343,487.167 344,488.5C 369.923,534.691 396.59,580.358 424,625.5C 429.359,637.593 436.193,648.76 444.5,659C 448.167,659.667 451.833,659.667 455.5,659C 470.746,647.426 485.413,635.093 499.5,622C 501.875,619.593 502.875,620.093 502.5,623.5 Z"/></g>
<g><path style="opacity:0.004" fill="#ffd6fe" d="M 95.5,621.5 C 96.525,621.897 96.6917,622.563 96,623.5C 95.5357,622.906 95.369,622.239 95.5,621.5 Z"/></g>
<g><path style="opacity:0.004" fill="#000000" d="M 130.5,629.5 C 131.833,630.167 131.833,630.167 130.5,629.5 Z"/></g>
<g><path style="opacity:0.004" fill="#fe0000" d="M 491.5,633.5 C 492.525,633.897 492.692,634.563 492,635.5C 491.536,634.906 491.369,634.239 491.5,633.5 Z"/></g>
<g><path style="opacity:0.004" fill="#fe0000" d="M 112.5,636.5 C 113.833,637.167 113.833,637.167 112.5,636.5 Z"/></g>
<g><path style="opacity:0.004" fill="#000000" d="M 37.5,638.5 C 38.8333,639.167 38.8333,639.167 37.5,638.5 Z"/></g>
<g><path style="opacity:0.004" fill="#fe0000" d="M 111.5,638.5 C 112.833,639.167 112.833,639.167 111.5,638.5 Z"/></g>
<g><path style="opacity:0.004" fill="#a41a0a" d="M 37.5,645.5 C 38.525,645.897 38.6917,646.563 38,647.5C 37.5357,646.906 37.369,646.239 37.5,645.5 Z"/></g>
<g><path style="opacity:0.004" fill="#000000" d="M 148.5,652.5 C 149.833,653.167 149.833,653.167 148.5,652.5 Z"/></g>
<g><path style="opacity:0.004" fill="#a41a0a" d="M 37.5,653.5 C 38.525,653.897 38.6917,654.563 38,655.5C 37.5357,654.906 37.369,654.239 37.5,653.5 Z"/></g>
<g><path style="opacity:0.004" fill="#000000" d="M 37.5,670.5 C 38.8333,671.167 38.8333,671.167 37.5,670.5 Z"/></g>
</svg>
